<mxfile host="Electron" modified="2024-03-24T14:09:56.297Z" agent="Mozilla/5.0 (X11; Linux x86_64) AppleWebKit/537.36 (KHTML, like Gecko) draw.io/24.1.0 Chrome/120.0.6099.109 Electron/28.1.0 Safari/537.36" etag="EZwozAeepvmZxe3sWrqO" version="24.1.0" type="device">
  <diagram name="Page-1" id="zhZwnyueDP2O1YpvD5bZ">
    <mxGraphModel dx="926" dy="364" grid="1" gridSize="10" guides="1" tooltips="1" connect="1" arrows="1" fold="1" page="1" pageScale="1" pageWidth="827" pageHeight="1169" math="0" shadow="0">
      <root>
        <mxCell id="0" />
        <mxCell id="1" parent="0" />
        <mxCell id="0jGJ4z3kVpe8UCgSM6bV-1" value="" style="shape=image;aspect=fixed;image=data:image/png,iVBORw0KGgoAAAANSUhEUgAAAi4AAAG3CAYAAACTy97JAAAACXBIWXMAACToAAAk6AGCYwUcAAAgAElEQVR42u29f+xmZX3nzT9u1jUhceMf5onZ+IdpbGiyRiNLGjZ2axO37rJZayxqSd0Q2ae6PrqsVVOS2qitLVLYUFrpg8JiUaIoFUsoBhERYUUWhSIgw0imw8A4M45fZgZmGAem5+F18Po+F9dc55zrnPvc933u+/t6JSffme/3vs+v+9znep/P5/35XCdVIiIiIivCSZ4CERERUbiIiIiIKFxERERE4SIiIiKicBERERFRuIiIiIjCRUREREThIiIiIqJwEREREYWLiIiIiMJFREREROEiIiIiChcRERERhYuIiIiIwkVEREQULiIiIiIKFxERERGFi4iIiChcRERERBQuIiIiIgoXERERUbiIiIiIKFxEREREFC4iIiKicBERERFRuIiIiIgoXEREREThIiIiIqJwEREREYWLiIiIiMJFREREROEiIiIiChcRERERhYuIiIiIwkVEREQULiIiIiIKFxERERGFi4iIiChcRERERBQuIiIiIgoXERERUbiIiIiIKFxEREREFC4iIiKicBERERFRuIiIiIgoXEREREThIiIiIqJwEREREVG4iIiIiMJFREREROEiIiIionARERERhYuIiIiIwkVERERE4SIiIiIKFxERERGFi4iIiChcRERERBQuIiIiIgoXERERUbiIiIiIKFxEREREFC4iIiKicBERERFRuIiIiIgoXEREREThIiIiIqJwEREREVG4iIiIiMJFREREROEishCeefaZ6vCRw9XOnTurm266qbrsssuqT3ziE9UHP/j71fve977q3HPPrT760Y9Wl1xySXX99ddXjzyyvXrqqafq9/3TPx33BIqIKFxE5s+xY8dqsXLjjTfWQuWss86qzjjjjOpNb3pT9ev/7o3VG97wa9Xpp59e/+T//J6/n3nm26vzzjuvuvbaa6vt27dXTz99xJMpIqJwEZkf+/btq4UH0RTEyG+88TdqgRJEStMSXsPr3/ybb67e83vvqa688spaAB0//qwnVkRE4SIyLtu2basjLEGwtAmVkgUB8+EPf6S6++676/SRiIgoXERmAi8KouLOO++sfSshwjKraImXs88+u7rllluqnx876gkXEVG4iAwHP8ttt91WnXPOOaOKlTSN9I53vLM28GL2FRERhYvIIEjj4EcZIzXUtSBeMPwilkREROEi0otdu3bVVUDzFizxgki6//77LZcWEVG4iJRDqTJ9WUKJ86IWIjsXXnhhtbGx4YcgIqJwEemGaAdmXPqzjG3ELfG7vOUtv1XdfPPNRl1ERBQuIt0cPHSwuuiiixbia2kSL3Tc3bNnjx+GiIjCRaQZohz0a6FEeRmiJQgXerzccccdfiAiIgoXkWboYktnXJrMLUu4BPFy6aWX1nMbiYiIwkUky9GjR+vuuMsULUG4UGFEZZOIiChcRLLs3r277pC7aFNubsGke++9967NuSUNR48aTccionCRSQ1OTcsqgFB417veNQnhgs+F6qJVmscoTJFAB2Aqsz75yU/WXYcpK3/FK15RnXTSSdWrX/3qumKLyNbVV19de3ko/yZNp6iRUrjOiEju2LHjBQsTl459HXFt7t2794Rt9Vl4P98LorpM74GI5xhYZr1HPvnkoew2bWapcJFfDEzPHn+mOnrscHXo8EZ14PC+6qeHdlY/eWJHtetn2+rlH/fdXz3yk3vr3/Favph79u6qHnlke7Vz1/bqsccfrf//xIH99RduSk/ht956a/W2t71tEsKFwf6aa65ZiTmM+PyYOZv9JcX18pe/vBYppctLX/rSutkfYmf//v0KGOnkvvvua7yeGLTHBMFx5plv73VNt13riPfTTjutfjghwstM8Xfdddfg/k1MF5LbFhFkUbhsSaFy5OiTtQj50aPfq/7Pw1+rbv6H/1Vd972Lqitv/8PqL7/5/uqir59Tfexrb63O+8pvvmDhNbz34KEnqgs/fV71jnP+bfXuD7y5+sB5Z1Yf+dh/qT75P8+tPn35H1df+upnqpu+9dXq7nu+U4sbXs8TzjK46aab6hTNVITLVVddVT+hTRnEJzde9nnWm/rJJ59c38wvueSSuixdpAmEbtN1dO655466LRpSUmk4hnBpEzQUBVAc0HfOMqYKeclLXqJwUbhsbbFCJOUfdt5SXf/9v6ouu/XDm+Lkf3zx1+rlfZ//Nycs/+2q128u/P8Ld/5JdfjoE7UQQaT8+7f9cnXGO//15vKfz3rt5vLbZ//qpqjhtZ/5m0/VYoYIzSJTJdwApiZcuGlOFW6Mp556avWiF71o9Bs5N3E7CEsOopBt1xx/O3DgwEoJl7AgQIha9qkoVLgoXLacSAm+BMTKD3Z8oxYcf3rD79RRE0RKLEhiYdK1dAmX3PIf3v4r9YKY+d33vrF674feUr/3777+hVrEEH0g/TSvVMItt9wyuVTRVCMuDz744KZvpW0A4YbKwmtp6kcaKfzuxS9+cev7CamPHfaX1YeoRHqdpdcO7QRWUbiEhRRSqUdF4aJw2TLgUyEFFIuVEE0ZIlTGEC6piHnzmafU/w4RGdZDJGZeKaV77rlnKa3+m8y5pK6mZs5FNGIabvOxIDgwOTPA5G6ePDFjokQo8rpXvepVjU/QbIcc/iqZlGW+4A+JrxG+s6985Stf8LvXvOY1o/nDmoQL1y0R2pKFCCLfacQ79xeOgX1sixyRMlW4KFyMsDw36CAm7n/s9joNRAqIyMpYYmVM4ZKLxAQRQyQGf8ytt99QG33HEjB80QnTTkG4cKNDSE0NKq9e9rKXZW+03MipJNq+fXvj9dcUvbn44otPGHzi8DnGaZG77777hMEegc91l/qlGNDnKVyYmqMvCHDSQJjQiSYSGXrd617XeN2X3AMULgqXteXpYwfr6AqeleBXyXlTxlrGFC65JaST/ujP3lunkvbt3z1zCokbFDejZYsWFsqIiUpMCUyDiJPcTZYnSKZLiCMjXZ9H/Pcw3cIpp5zSKIqm7PeRxUAKJU0T4YVC0KTXDA8hY5QENwkXDMJjgNAnStnk9VK4KFy2VHQlVAURYUGwpNGVMYXKooVLHI0hCkOlEmmk/Rt7B/UE4fW8D0MsId1ld8694IILRjUYjkFTnv/000+vnyBLxEqXiKE3R5oKiPP+snWhF0oanSANgzjh+uM6TFOWY4j/eQqXcN3ff//9WfFBFLKrg7bCReGyNoSUEGXLixQsixYucSopFjCkkDDy9r2J0B8C38Wyjbn4SKbEddddlzXTkqdnQJlFtKRww2W9OfGCb0a2Jnid0muQmdx54CDS9+EPf+SE64UHkalHXML3Jo0msXC8NGpUuChc1j7SQiM4hAMpoUULlmUIl1jA8JOeMaSQ8MDQZ6QPhJ3p6oqJbhmihadGbsBTmqeoqQEXlUI8KY4lWuIOovgWmlJSe/bs8Yu+xcBoS+onHdRvu+22zddwzdAPJb1exkghL0K48J3PXfPcDxQuCpe1h0gLUZZ5+VemKlzSBQ8MJl5KqUtuXrwGoyhPPstKEZGm4skyGI6n0EUWgyBmx7aqh7H2M15P0xMoA9QYkGJAeHG+L7vssnoh0oXnYN5l6AhqOgUTyWK7nEvK36m0WqRoRRAQZbzhhhuqyy+/fHM/mIqhbyO0eUIqKDWFkzaKzxWvyXmkOM9TFi4xuSojBFtbVZ3CReGykhGWZ48fq/Ycuat67PC363/ja0E4LEu0TEW4hJ4wNLb733fd3GrU4zxSZs3NaFnRFoQL5uAQUZhK6/tcl1LKlOd9Y8Tjk6tg4gm07UaO0EIAhoXzSkv1cE4Z4BALTemosBB5Q8SMYQpGiCJWEEkMgl09bLgG6UjMVAp9S8F5D6KPlGPwa5FuCGKY9XFc+KiazNbB+MqgOQURw/6n+0fPpfQ7TZo3fd073vHOyQuX8F3P+bs4prZrUOGicFk50XLo2D9Wd//0guoLP35t9eUdb6gFDDBnEOXOWzniEosXph2g8qhpUOHJmwFxWaKFhZsjT4fLmvIgB4Ncrkw5NMial7gKZukPfvD3s76aNuMyA236nlBOTUQjNXG2LQgnBu9ZGuER1cCbw7XVtxEZx0oUJJifS0D4piZWyoU5n6RCWV+aUulqJMjgSTRyWdChOd0nIkTpwJ/77Gedv2iREZeckGTbbT1pFC4Kl5USLYiUG3edVV2+7V9Vf/ngv6g+/aOTq+/s+VBd+syAc/sDX9rsfrtVhQuiBb/Lth/flzXrcjMnVM4AuUzRQnUEaYPwZDWVaAtP5rmBjHTCIq5xzkluIIq9DSnf/e53Twi5I1wQLU09aLoWBs7g5+kD4g5B3BVh6VqIGpR6e3hd+uR+/vnn1+kv1jN0igbSMMsQL0TLcoKSyFLuu5IrLeb7PXXhwvxcTdV0bQ8zCheFy8qIlh2HbqgjLIiVSx7455vL57b/cv032Hjy8XoixK2aKmKhyuiBh36Q9YzwbwbmZUdawrxEfY3Ei4D9yplyaUS3KOHUdyDKCZcrrrgi2+03RFRIRTAQNTXBC9EP0ol9olV0dW0TAwgaRCuDU9cUClyjJd6bnHCh+ibnGYobtuV8TOlC2m2M3ih9yIkGzmsTNHXLia4gdKYqXHK9aEK0rA2Fi8Jl8oKFaMr9G5+tBUoQK0RbWML/icI89fPnS1RpOheMultNuATRkoaTpyRaGLQYNGPRMpVoC/CEnhvA+6QuZgFvBU240n1A7PURLrn+GERgcmD4ZIDOrYMBs0Q8IJSJcjSln7jucgML5xWjLNdkbvslvWxywiVNQSBSqBQjtRJHckhJYFDm+HNRIt6HT2dRIDZygioYbnPfFc5hrgvt0FL6RQmX3Da4VtqiiwoXhcvkQYzcue/jdWooFS2xePnrH72suvdnl9Q3T8TDdd+7aLMseisIl5AeahItU/C0MPAyCFEhExsfpyRaIHdDxCOySHKGS6InQ4UL5z72PIRzHp97PhOiOrnjR1h0PWAginI+EradDkRxGXicYsIcPGQCwZxwidN8XH8l7fAvvPDCrHghQjXWPEBdcKzpOUCEtZ17oPN0Lt02xGS8COGCWbwpPUcKSeGicFlJnjl+pDbhIkqaREscdcGsS5URxEbddRcusacllx4KnpZzzz13sGjhfbMIHp7aMRYS8YnD7lMTLfUXOnMzJUq0SJpSHEOEC/sed/nNnfPwO1I9XCc50cR8M20pIgRKLs0SDyZNn3f8e+Zwyk1i2TYotQkXvDpxhKXt+PmZM0dj/MXku4hoG1VR6fZJ+3V9X4ga5aJFTCsxJeHCuknHNk1ayuffhcJF4TJZGHAfPvjlzRRRTrTES2zU5Qv+rR9+fqFG3WU1oEs9LSl4FGaJtBBex5jKzYabWZ/18F6eIBFObQPfVGDgmELrfZ78c0KkKV3VJFwYHPpOXMnTbi5V0dbNFP9PbtDsitQ0kZZtc2xh8O4rXDg3fchNakj6InRLnid8T1LfD/tS4lXhHLz+9a8fJAQWJVwwjDdNsMhCxK7ET6RwUbhMirrnxMbeuoEaFzBRl4cOXF2Lly7hwhIbdQ8c3lfPV7SolNEyhMu8PS0IDwYfPA4s3BwZCIiecBMjPE00JSzc7NgeYiU0FkvTQlOMsgS48TX1N1kkiIRcyqKpyqdJuPB59P3+NUU9iAQ0QX+RMXqJhO3jKclFjprM3E3ChUGyLwj9XInuvAdFHjwQrOl2+Y6VlOE3RcvwNvU1FzcJF+4jXBslCz1zuBdwHZBq7SpH5/pt8/EoXBQuk4X5duj8yoBMAzW+jEG8kApqi7yEv2HUpdcLF/8/7LylngZg3YRLnB7K+RVmLXkmxI8Q4QaRNoJiO4gYBhHC59wsECj8JCLA73lPGgGasmAJEFbP3VTjjrmLgIE7d2PGWNpHuIRoS99znzN7NjXg47PODULBUzJk8k+iG2lH2LbJ95qEC4Nn331oWlef6qqh0b5c7xYMtqX73+Qz6mvSbRIu81qIaNF8sPSzUrgoXCYDkRZEy1vfdWo9OL/3Q2+pxUs9odhz4oW0UZt4CV4XPDF4Y/gCxEbddRIuXZ4WnsyHeloQLZhDyZnHomXWWZBXAQysQ/Pui4i4NPkVmoTLLKQl2U3VNWw7J1yGtvHneiFdlausahJuTWJjSO8dtp3zmcy7HD7XSI6UWZ/ZnjEQ50rpEYFTFS4IYgz7fab8ULgoXCYB/ofPffHiWrSEiQODeLn7nu9sipeQNuqKvKQddf/0ht+Ze0fdRQiX2NPS9AUfw9PCjWRqjeEWQZPHhWkJFkmusoSlySCaEy4M5LN8fqRmUjGSE3D0S8n1agkiuo6a9lyI6KUTDLJQidJHuDQJnTZC07ox1tWH3PH2MYWHz5keKDkhGaaAmIpwYZ9INw+Z7kPhonBZKnVU5LnB4u++/oV6huNYtISFeXcQL6WelyBqbtn9vtqoy81zEUbdRQiXtpJn/s0T+SyihRs2N4XQt2MriZbAGF6RWcFTM2tVEQPhLHAdlczamyvDJa1DmhJT89AlZ+JsakzWJFyGtL1HOOXK0bt6i8wCgjQn/oi8MdUD5tyShfU0NXXrcw03CRfEAhGS0gWjMdcCniGiPnxGpKAx+sdTWPS9zyhcFC5LBTFy6+03VO/+wJtbB+wwaWCp54Xf0/uF9BIEo+48oy7zFC6L8LSE9NC8ZwmesoiG3IDJOV0kuUEj9PLI3eRzwoVIyCzg68kZRVOGzEc0dMkJpybhwvlom99pSsIl17iP/ed7SZl5nyWX5grXD2b9WYQLooN7RMlCBRFmW1JsPFCROuw7eabCReEySYgeIEpKBu8+npfwu6/t/E+1URfuf+z2uRp15ylc0rmH5uFpwdgXi5atFm1pa+SF16CrKdZYYG7O9UQJaYNS4cKcR7OAoTM3cKUVKl0zTo+55IRTk3DB8Mln1vc6XrRw4Xy2zVg95tLVyK9LuIzVgG7We4vCReGyNKggYoDvM4AHz0sceWnyvISoCx11nz1+rDp67HBt1J1XymhewqXN08LvxvK0bOX0UExu3hfC3UMmHBwC6Y2cGGgbNJomWZwF0hTpPjCgp0/NafVPiBaMvYTt9xUuU4+48MBQMmfSGAvit6Sf0iJnh1a4KFxWBp4qMeOSAsn5WrrSRjnPSypeQpVRzqi7ChGXkjb+wdMytKNtl6dl6n1X5iKonxsEcwNxWwO2MaM+hNlzFUV4F/oIF3wEs0Apca71fUoutcbAz/ZpGjfWQu+gprb9qypc+LzbJoKchyG2pDpK4aJwkUxo9KZvfbX63fe+cfCgXup54f901A1GXV5/+wNfmkvUZUzhMgVPCxExBCLHs1UI5zhXVTJ03pe+g2ZuIOPzYttNIjInXGZtmpercomrq8K+pNVH8+40nDsHqypcKHXORdc49whHvC9DF0RGrq0+KWWFiyhcet506IpL+mPWFEqJ5yVEXUgZIW5g48nHN426UxUubX1a+PeDDz44WLSEuYPaPC2hp044x2OZ6lZFuND/I/e0Ou90ETfeXFUT1TRcC32EC5/xLKQ+G9ZP1CONxOW6tVJNsugo2aoJF85fzkcUGv3xec+yNPXCYek6LwoXhYskX4jQr2UM/0ep54X/x0ZdOuqe95XfHLXKaCzhskxPC/9+4sD+6jN/86nqt8/+1U0RRfRlK6WM8JnkDJPznrOIiEauq2jXfDs54dK36VhKOmcOHVmJ0KXkvDBDK3ri67BNqK2DcGE7OXHA7/hujvF9o7IsJ4S7OkErXBQuEsHTO6XPfX0ts3pe4o66vAaj7vXf/6tR5zGaVbjE6aFcFIQbOZGWWTwtoY1/k6eFSEssWlj495e++pkTWv+vM3Qgzc0SHM/UOzZUAeW2R3lr1wDc1Dl36GdG6WrOoJzbj1y3YfZlFnMw5585svDJIJbw9+DnahJDqyhcmqJrs3qT4u81n00uXdQ1f5HCReEi4ebyiyqiMUVLmjYKkZemUml+99jhbz9/c/7Ztuqir58zWtRlFuFS4mnBVDd2yXPMvv27N0VL/Bnxb85vbBLeCnATzLVPJ/JAxGpMGJgZTHJNyEoGzCbhMtRQnIv8NJUi56IzLEy8OLQnEFHFMOBScROamIVJ+NZBuOTMz0TJhjTNa4MIa05Yts1fpHBRuMgvbgZ0xx0rRVTqeYkjL6lRl54o333o2tGMurMIF9JDbZ4WnjYX4WmJIy3pVAP8fSsZdcMNMhcFYaAmojBrOJ/345vJlRSzMFtw7vMqFS5U/BC96CvYchP1cf3krk3IlZAzsOTmNho6qHMsoT38OgiX3Dnu0+K/NOrCddoUyUsnQlW4KFwkIhhy5xFtKfG8xCkj/h866gaj7hgpo6HCJXhamm4+dLuc1dPSlB7KeVqahAtTMiAMtwrhPOWqa+LIy9BKIz4PZm/ORVpYMMeW0iRc+B2iommASo8XkZMbsLr8MvQGyQ3EXLO0ou8D6dBcXxMGzabjWDXhkhPEfFZB6I3tJ2tKFzWZzRUuCpctD18CPBLzjLbkSqVjz0tIG4UFo+7Pjv6o3j+MumN01O0rXEr6tHBjmdXT0tZcLudpaRMvHBfv2UrChUGZVFtTbwxu8EQjSru0InRIeWD0zYmNMKiElEHJOpuESxBYmDG7Go/ha8ntEwNE6P3RZBiH3BQBIWVEKqzkOJgIMCfkGHjb+o+smnDJteXnGMf2kYVzTjVYU0QvJwYVLgqXLU2oghmj/Hksz0sw6t657+OjGnX7CJfSPi3z9rS0pYdyC1EX5pbaauXR3BDxeDSJAwZJBk56pzCLMFEyIg2c+/3799ciBLFCCuT000/PekLiNFQYJEufvNuES3iaJ/LGfqSfHYMU+5ZrJBf6wZQ0IsQ4m+vpEoQYx865yK2Hc0XJd1P0KU6ZrbpwIaKUi4AEUTCP6j3Oby4iduqpp2bPkcJF4bKlYQBeZLSl1PPC0mTUXYRwmbenhWZpbZ4W0kN9RUtYOLat5nUJ13JuxuQ+7e673suAxsDWly7hEu8baR/Mtxh3SYMxwDe9F5EVUj0lAyrXbW5QjhcERtg+5bqIBPah6fXxYNm0D6skXBBhufPNuZuXcOGYmlKeueNSuChctjSPPf5oHVl485mnLFy4xKXSOc9LMOo+9fO99c0Co25Xb5f495h6eX1YmAfpyNEn60H9wk+fV4u1nGBbBU9L20I5O+d0K/V1iY+VsDtPryVCoXTB00FEJ6QK+p7bnHChIytRjKGt4fHYMDVH6f6E19ANtsls3HcJfXO6Ij6rIlzYn1yaCIE4L9ES1ttUbs/9QuGicJEIWvun5bXLEC9N0wPQUZdIDF/sA4f3VVfe/oeNKSPECfMcYeYltYTQYcZp5j/6yRM76vezHrZDNIVjv/orl9YiBrHCgN/VpyV4Woamh1JPS0ofT0vbQrRm3u3vpyhewudFVISoAed8FgFDeoYn4bix25DBq0m4AOKlKwqSpnUYoEJKqc/+hNdubGzUac6m1E/XwkBOZKJUyK2KcMHDkxtwQ9n6PB8GOEekhnLnm4clhYvCRarnPRRjzpI8L89LbNRFiGDUjcUL/yea8oMd36hTSqSDWA/l1GEwS30qQcBgEGaAJ/JElILqqlx6aCxPC6WPTemh2NMyi5AkerYV+7rkBpa9e/fWlSAYUEsFDK/DC8K0AkQnYs/J0IGrTbhwbeFhYSDKTd4Ye2vwoSCeh4iW9BhYB9c0Ai83H09TGolBnPPad1DmO8DxhYXjGSpcgp8prIt9w7s0KyECFu8n4o7rYBHwUMSAH2+f40w7QiNcENTpOYjnqlq2cEGYxsehcFG4jAIDNWbOZUZbcqXSqeeFlBEddYFUDyIlRFiIrASxkjPR9nlST5eYMdJDbRMmzpoeyi305dmKpJ9f+D9pFSIxRLwoQUaEkhZgALj44ovrUD3lz3hGcuuYhTbhEu8jN3Y6//LkzDWDj4r/E00IVUdDr/O2cxW6PpNmw+zLOWH77AedYtk+VU2IhiHnJd5OWIbObJ5bV5/pB7rWnVvvomZhz20/d2zzPAdjfgenun8KlxWFKANzEk1BsJR4XlKj7rd++Pk6BZQ27xr7ixF7WoaWPGPEbWvjPw/RQhQtzGG01Rky6Iw9UHUJl6ERpSlEtURE4bIQSIkgEqYmXNo8L7FRdxHlviE9xFPvEMES0kOL8LTkerqwzq3UkG7KjCVcREThsiVh0KfXB2miKQqXplLp+zc+W08FsIinv0V4Wrra+I+xEFXramwmChcRUbhMGoxdPOXTZG2qwiX1vDx7/Pkuu4sKU4/taVlEeigXdaFaynSRwkVEFC4rDQPZIuYlGmPBp0HFT98oS0gn4eWh9BPDJZUQLHQHxaiZGg3D+2g0NU9Py7zSQ02ddLdaTxeFi4goXNYMBjJ6lkxduPzue99YV8b0mR+E6AzihPJSylmZn4UqCYQIXhUWSgbpCEpZJ6kcSh0pix7L09JWPUTJcxAtizj/NNijV03T/ojCRUQULpOHFv9TTxMx4OLPCJ1BSyIslGtSuonwIOpBqSupnqaFzqP096BHAgKHcthV97Q4BYDCRUQULmsFqRM6xU6h6VybN4N9LJ3lGPPpDTfcUPeeQKwMER2ImDPOOGMmT0vbLM+L8LQ0nUuqtKgiE4WLiChcVg4GMPwtUxYuDLRNbfdj8KjQNItUUBAsiJCh3pSh7yW60yZaFulpyQkXUm6WRStcREThspLgb2Egm6q/BTMpvpaulub8nW6epHmIkswiWGYROlPztOQW0oKkB0XhIiIKl5UDUTBlUy5+jFC+21YJg5cE0TA0tTOWaJmipyXXRZf9SLsMywIjnTt3VpdddtkLljBxn4iIwqUBBi4Mr1NNEzHAM2NzmOSwCeaTYUK6ZURZpu5paWv/T/RHFk+bALdMXUQULi0QAZjKbNC5GY275tbhJr9jx46ZGsONsZx11lmT9bQ0ndvUNyQiIgqXyadvSyAAACAASURBVBOMuQxkUyx/jmczzj2JUhFFiH1I5dCY6aFbbrml1dMS0kNTSckFgy7+JhERUbisDA889INJNp4LEQH2rw1SRAiHZaWIiLS0eVpIxdHsDRE2NWGIQZc0nIiIKFxWBp64pziokrqib0tbh1yqiGgSt6z0EGKJCqbdu3c3RoQA4TJF8zPnOI5oiYiIwmXyMCP0VLvkdpXr3n///dU555yztGgL233LW36r9ra0Qb+UKZabI1wwZltZJCKicFkJiFjwxD3FLrmkr4L/oimSwbxDyzTkBvHCHEc5f0vY76k2+Asl0aVTKIiIiMJlqfCkTVRjitVEXS3pDx46WJ1//vnV6aefvlThwvaZy4jKpiaOHH1ykpVbIR1XOo2CiIgoXJYK/hFSBVMULkQo2iIBCAX8Jcvs2xIiLvRvYebpNiiFxgxLCmwqC/uDoLKXi4iIwmUlYCJCBtSpdsttM+bee++9tWBYtnBhIV11/fXXZ/czpIuojiK6NaUF0zAeJ1NFIiIKl5WAAQuPwxTLdElh4Btp8rcwz8uyerfk0kVdrdrp/IunaIqLnVpFRBQuK8HBQ0/UEZeQNpjKQqM29qut2oXeKcs25sbC5corr2w91wiEo8cOT2rBe8M5VriIiChcVgKiAERdMGdObWG/uiZUXCXh8v0ff7362NfeWp33ld+c1HLZrR+ufnpop18GERGFy7RZ9afsVUsVfeuHn6/+xxd/rfpvV71+UstFXz9H4SIionBZDZ45fqTaceiG6s59H5/c8tCBq6tnjx9rFFyrYs4N3PwP/2tTuLzv8/9m6UsQLn/5zfcrXEREFC6rAT4HRMJf/+hlk1o+/aOTq6/t/E/V08cONu77I49sn0w59Nve9rbqjjvuaD3X133vok2xMAXhEsQLqaKNJx9f++giC6nReAm/1+Mzvc8o/mz8fEQULi+IuNz90wuqv3zwX1SXPPDPJ7V84cevrX529EeN+37gwIFJNKAL8xW1NaDDAHvl7X84OdHCwn4dOLxvLQdCfFJ8LkzJwJxWn/jEJ+rPiuWjH/1odfHFF1fXXXdd9eCDD1b79++vDdQyG5xHJj69++6762XPnj2d7+H7wWvxifG58Pl88pOfrK644op61nWEzK5du6q77rprc71NM7Gvk4hrguab4RxzTjjHijuFy5aBG8L9G5+thcuUFoTL57b/cp3GauPaa6+ddMv/wE+e2FF7SaYkXIJ4+cKdf1JXF62VIH9OgCBWiISdcsop1UknndS6vOIVr6j9UnyODLwOAsNBCL7sZS+rXvziF1cvetGLasHYJXTOO++86qUvfWn2s3nVq15Vf54IGv7PelkQMmv5MPncsRK9RZw0wd/DOeacIMC5l4vCZcvw8MEvT1K4kC4iGtTGVCZZvPHGG9v387Hb6wqeKUZcrv/+X61VpIGB8KyzzmocCNsWBtrXve51nV2QpV24vOQlL9k8pwyqbSBaOO9Nn8nZZ59dC8kgXMISZmRfJ2gIyvlASO/c2ew7ozAhiBYWBLfCReGypSCqgUhALExNvNy466w6ndUEIWZujMv0uTBPUddNFGPuFP0tLFQ7rQuHjxyuB7qcIGEJT+thCb/PvX7btm3eHOYsXBicX/Oa15xw7l/+8pfXETB+kg6GdRcupH6ILnFsJ598cmvqGeESn2OFi8JlyxDC4XuO3FWnZaYoXPC5PHb4263HQZ73Xe9611JEyxlnnFGnq44dO9aYXsA/ggF2imkiftJfJr4eVhnSEvHghjhB1F511VX1IImwiUUvgx/RMtKNDJLxe1/5yle2Dh6ShxQdYuTVr351PRC39TfiuxOfc/xqTeecwZnPJKy3xDuzShA5DuehS7hwzwvnmHOCF0jhonDZUmCA/fKON0xSuIR0UW5QDb9jMLr88suX0tOFp8Dw5Nc08E8xTRSEC/vF/q0DpIjS9BBP623dlwPc9BlwGQTi9xNN07Dbj42NjTpaxRJMz03nPBaaRFriXkjp94nvGesL6103cy6G5FLhgv8lPsf79u3Tl6Vw2Vo89fO9dUpmisKFhbLopuqi4L7nS/7hD39kod4WfBRdXgjKzfGQxBGOKQmXP73hd6p/3Hf/WlzHl1122Qmio0/kEYjMxCF4nmiNuvSP4pb8PjbcsnDeSZfkXt9nvesuXBQoChepni+J/s6eD01KuIR9uXzbv6r7zCCuukBELCplFFJE4Wm8KSK062fbanEwJcESCxeaz61LD5f3/N57XiBcCKf3vdHzFH/aaae9YD1EYhws5nDfee67g7iMB2t6M21V+kRcROEiz0FJdIhwTEG4IFiIAuFvQVi1NaIKvyP0zPxF8xYvVBHxZB78Ek2DGikKoi1T6pabGnMphS5JpawCr3/9618gONrKSduIB1MWIjm5z5jrjWsgLHFKib+R2qDqjT4b9913Xz0QsU+ziiC2E9ImoY8H26E8GK/VGIIC/8j27dvrCAgLgmLv3r3V008fKXp/23lhHfyeHjvpYM02uR7De+PjiX/P0sfTEc5Z7piGXv9sn7QY6+T8h8+Cjt6kcEjfdKUZw7lKhTfngnWEY+WcxdcN7wvnMZyn0uuK11G9xPlgG+x32GeOp8/1yXab9pHzwzlgvZxvtsE1yrZF4TIKVBYhFpYpXIKnBb8NQoooC18EvqTbd99VezFyUwDE4iH0QOCGOI/+Lu94xzvrSEs8KDZ90dlnJlWcWjVREC4IKqqd1oU3velNLxAc3Cj7ED5HBh9KUmlWd8EFF9Q39txnjBChTwzRN8RsqEJiQPzgB3+/jtyQaqK0FTMpZdbsI6KXAWKIoCD6gzCP183Cv0899dR6f5h6YshgzCDEdwfhxvoxf+L5YeHfGGdZP5HNtgGZipdwXljiqTAYLBmgw99iTxEeF76z4W+c0/i9nDfOH3/Dz9bknYlhML3tttvq+0HTMXE+OabSAZsBOb7HsB4+3/BZ8G96B5FOpsKN7TedLwZ01sGxNp0LjpXPBKEXQLSGc8w5oZKrRMgh1LiuWSfHzn7G+8w2Sd+VRr6uueaazc+EzzX4jjDCs56wjXDO+QzC8fT9forC5QSWbdBluyEtxL4EgUJFDlELBAAN3B75yb2tg064wTOI8MUZS7xwE+KLyQ0rfrJoqyQKnXKnJlpiY+4/7LyldzplqiA2YuHCzXTokzSDONdR3Ho+hRsvT8ZhoGEQYtBmIOjqFcNNnChMKTy5Ippj/03TQiUVx96nXJgu1AyecW+QtvVTARNXaMW0lUMzICKySnvqxM3r+pZDI2xKj4nPke8356ENBCefQ1vfmXThXCBycucLIVqyDkRvLHaH9HG54YYbNsutu8476+7qvwOIoLhRIN8bOh3THK9rO7wGMWo1lMJlMMwJFAy6ixIvYTvMTYQBN6SFAFMrgypiJZ5RGTFw6PBG51MzP/miEx3BRMtTwdDJE7n5cQPlKSJ8ydoGega8qU2o2GTMxYOzLiAE0psjT3Z8bkQgxhZnqXChJDUeGPgbN2fKrPmZig5eyz537RdpG67FdHChgor1svDvdIDmabdrcGfbnB9em64/7H9Y0sGaaEJu0GkTLkSpGIRZN0u6zvD7sG3SdEOECykJHjbajolzlm6f66WpWontpenI9HNoWm+TuGCQD/vVdC44lxxLKlxK+7jwoBWXWseCKuw7P3OimIKHJoGaChcEKeIofCeCyGXdueszLEQ4ReEyGMqOF9WILk4L3fuzSzbNtwwwRFXwXhARiKtxQnqDCExbi/o0+sKNmTJLwvc8LXWJGMQKYViekhAsDC5xbr9LtNAXJaSIpihawkJvmcNHn1iLazd8JrnmcwgHPnvC2nyWffP4JcIlPEHG0R4Gl5DPJ2LCTT0VIITR21Ie7GtqFmaAYB4fUli8N8xbwyBPuih+Le9tS0uxf2mKjYgRAxLRRUQTAxeCg22m0ycwsPURLqyL/ebcsH6+j/FAyntJ2/B3lrh7bKlw4ZgQR6lIZP9ZJ+kS9oOoLMeZRiF4XQqv5wEojYJwbKwnrJN94rrg97l9SD8L3ocvj3PCA1I84PPQRZqJhXMS+31KhQv7xGeUCiK+J5xr9p0oEz/DQ14qMDhHTd6pWLiw3pDuQqjw2XLf5dhIbdHPh+2mEcmhkVGFyxYn3MTxuSyqER3bidNC7MNPD+3cTAvFBtJcioOIBlGZEvESBAWDB18i8ubc5LlBkV7gi83ClxChwheYmypPbemTetuAx9+IEk21iihegr9lXYy54XPhM0ujB/HTMYMHgzlChsZzDBxDRUwqXMI2uI6aDIgIATwV8Xu4BptIX4ugbuvoy0CfPl2zjibw8MSv5ck+VGPliLu7hsEqlDB3CZfceeZziNeVEyPhfaXCJR2oEWZtfgr2P20+mLbbJzKSipYuHwifdRqhaetTkxqV2+ZiKhUuXONpegYB0fS9R+hwb4zFC9c0x98lXOLGjTfffHPjNtj3tN8S5mZRuAzi0LF/nKvPJURZ4rRQMN/+YMc3NtNCTaIljr7wWiYu7DPoBK9CqAbh6Qcxw+DFwtMrAw77k/M1dG2LLyqRoin2bEmX0HhuHct8GdB4iivJ5TNA8GTIYNvXMJsTLqwriJYmwcvf07B8bl4a1h8PqAwI8evS9Yf/cxxxFIV15AYGXpeeEypkmtYfwJcQpzUQFKURl/RhIi2Hbpufp0S4IOric8YAGQuMpmNKO/giBJq2zbHHpuG2+0QqeNpEap9y6FLhQvS4KZrU9t1PBQmCtlS4xJ2S42rQeHsXXnjhCY0iReEy6IkVn8stu99Xi4t5CBba98fVQs8ef6b2WDDYxz6Wrhb1RGQQOkRqCGH2LQUc+3XxPnA89EaZsnhhvxB+RLjWNXoIdFOm4iPnz2haCNeXiphUuDCQxANa2/4xmMfbvfTSS094bWo2Dq8puTZ5sm8TF0DqLF4/A2fJ+hEXRByCP4KIThxhWqZw4TOPj5v1d90f+BsPMKTB2AeEDwN+zJlnvn2zaoiltJsy682d40UIF8RqvG0+r+Df6fqMeV0qynORuJzAKUnFpoIul3IUhUvRDZ8IyEMHrq6re8Y035IWosEdaaFQpcGgSaoipFVKREswlCJaWA8Rjltvv6H60lc/U+3ctX0p7nRuiv/7rpurv/v6F6qDh573i9CJdsriJcwI3ZZqWxfxAuTXGTxJsyBkSkQMERvC7G3XVCpcSEGVtqEnDRBHBkhvxeA7oGw0jrZwHKUw6MXVOxxPmr6Ko1Kck9Iqp1CWTTog9P6IB/JlCRe+iwiMOC1Cyrf04QMvSTgmzn8qTkIvmJCqK324ifeZ/VuUcEnTgCES0rXf4e+8Pn5/TvymwoXPs+S8ENkrTWeKwqXzRj9WWTTvp1ooNJEjmlMr+ecGy//z8NdOqBYqFS3P93J5phYtN33rq9W7P/Dm6q3vOrX6oz97b3X3Pd8ZpQFXX+GCaGE/PvfFizfFC5EXzK9TEy/B4Lwu8xP1AYM1gwFRkdBjoqtcM/YkdAkXymlLBwYMtXEYn6d40pWx8Ii9JAiurlLdGERKbNTl/bFngp4g6fpL5rvpilwsU7iw/3ElERGUNp/ILJHXtvOAgGC7mG6JksX7jBhdlHBJzcFt57ZEXHA+u4QL/y8BsRv7aEhtisJl+M39OYExa/t/3kuUJU4LseBJoZw5rhYqHdRJD2F8JT3EDY9IC2LhjHf+683ld9/7xuozf/Opat/+3XM/RxxbmLX6sccfrYXTb5/9q9XVX7l0s3yQ451a5CW0+V/HNFHp4BN8TlxHDA6kF9Jqn1i8YN4s6ePSZkJN4RqJowNEX2LTLeuOI0P8nXA6ZtaShdfG1Rv8O14/g37c8AwRNaQpXo5lCRfEAgIsNtD2EXuzPLwQDUPkcjxtvVIWKVzSyGJfIz6ev1hccA22CRe21zYTePz9QzjH118acRSFS2+oLiJa0ke8xHML4ZMhchMEC83Ybn/gS63VQiWeljDYkJp574feUv2Ht//KC4TLm888pRYvRF7qG+PxI7XImNWAGtJomJdJpRGRwrNDNInfAUKKbb/jnH9bp674Yk7N8xLO+7d++Hnn3smAiRNzbVoOSglnztOQChcG7FIYROKBCoEUewhIW5Q2OCtZ2M+4sgYREwsbRNRYrdiXJVyIEKSD4dgze/O5IZAQKXx+XVG7ZQkXvt+xcCFtWCqqA0QFYyGIcEmvkVi44KEhvVqCwkXhMjoMxn1mi47TQoie0ESOHiEIDgbuEvNtU3qISEvsaSHSkooWln//tl+uPvk/z632b+yt94GoCCIKsbHnyF29RQzrQIA9fPDLdek2goXjjI+Z3jdEgXiCJtrDfiBeiLxMzfOybrNBjxmRia8LBtr0aTU3iKTCpcRP0TRop36M0o6qfZa40VdasUQJdak/Z6rChahHfExE0caE7WGYjgfzJpHIQExPlLQ0e1HChftRfA0POReIlDgSyblN5/9KhQseIYWLwmVpMOh3RV3C39K5hVgYHIemhU70tBx7gaclFSwsCBlSNbwGglcnRIGoaKIMmzQYDe8QWIgZXhcW/s/vORZehxBjHbw/VFrFnYX5yXp5H2AQ/sjH/ksd+UG8TMnzErZ53fcu2jTlrkvUhZs0EQqqZBgk4wkwh6aU4mZgLLloSipcEBul4LeJm+UxKMTmWPwRaS8S9oFjHLIQIYgb3TEorlvEJTUkjxlxYcBOG9Cljf4QKZxnrgv2LVyDyxAu/DsWLqSvhhxz3HCQazS9Z6TCpfQ7oHBRuIz+9BkP/LkpAOJW/aFaKMwtREdbUhF900K59FDsaSE91CRaQrQF0YDfhGOIq6PCMYSybPabv+HDSRd+H4RK/L4mAcfrOAdEZ9hPjLqIliCkpuJ5iecmapp7Z1XBmxEPWHgbYqPrkOufASgecHKDb67lfyncuGNxhIiIB23SRmn7/jG/3wxKsRcDYdTHD9J2DS3TnBunbrgO+swQ3jQDPf9PTah83lTC0A05d62FdeB/SQXoIoQLjOFxidfBNZqicFG4TE7AkAaJoy7p3EJxWgjBQnRkSFqozdMSyo1znpZ4obKICAfvCfMu5frRpGKkayk1InMu6n4Q+3fX6aqwX7HnJUReliVeiPgwz9M6+lviCgputm3dX0tI+0ykDclS4dLVXCwntuJW/tzE40EWv0ac9uhbVVRCnPIIVUXFEdn776/TApwD9jWeEmNZwoWIUSwG+1YV4fth4OWYEA3hgYN1pJNMYuguEXJ0z00jM4sSLun0D23ry0HqrUs8K1wULpOPusRzCwVTKjefeG6hkvLmPp6WkB5qEy0sCJsHHvpBvU9U+5DCWdScSywIuXBO4ugQ+516XhYtXkK0JYjBdSRtcx9Kk4dCJ894fbkbcipceJouFYWkhWITMD1m0qfdtFy6rW19CoM4USPSRIgwhEbqYWGb8WDcZ7bqMMdQ8HPE3WmXJVy4ttP0W6nviAekIBzCMYUqLFrgp9MupPfKJtKUXzDJzlO4hH3id/G2U7HVRVrKHbrbxsescFG4TA6iKWHiRdInIS0UWvVTLUQTuTQtNDTSEntauJG0eVri5T+f9drqwk+fVwsD9gsj7aImi4w7A3Ou6g7Ezz19BqNuLF5izwtpo0V5XsKs2nxe6yqyczNDd3WxbYIn7XjCRBaenLuECwMlk+GVEA9SLKQc4uNhEErFGBGdUs8GAyb7E2YAZrANEZuwDeblGtK9lGhRPAdPWkq9zM65qeDkmEp6O3FuYiMqabQgBFKDLWKwRLTkBDWfRRNxp2SihrNGXNLvBNsu9X4hfNPOubn9UbgoXCYJQoXKnJAWCq36t+++a6a00KyelnjBS0K1EfvG/hL9WJRoicVLbNTd9uP7qg+cd2Zt1I33M3heQl+beUdeQsM5zu26k5ufiAG8dJDhNUQl0hmmERm5VEBuriIG4i4vQZp6YJDKvYdISTwZHf9um2AxgHAm4tTVGIyoTnq+SrxBzOsTR4s45phlCJfw2aSVRUSqmiZjjEE4NnWJTSMXCL4SEBe5Ls2lEY62CFtJOTSkcxXRTbcE5jSK30cqMfc9UrgoXCb5JPu8UDm2ORkiaQ4qU2ZJC43haYkXTLlU9EBJNdS8hAs/EXlUVwFGXcRKfBzB87KItFH4bEjjUZpeOoCv6rXKoJ5GSoLwIBLCABbP9s1P/s8AzoCJyEmribgZU0bc1YAuHnwJyecqdLi+eU/sbYkrlnKm0Ljtfzx7c1PkBZ9M2uqdASKkcuJjT5/yQ7qLwT+XUuR3NOOLjdAIg1BmvezOuYF0Rm0+0ybBxz4QmYjFDtdQ/HrSTekgHldo5dbJ9RZX5JQIFyKEaWonpPfCxK99hQt9VWLxxDmm6i53fYbGcJjMU2EdZodWuChcVmZAqEOph/fV1UKlcwvN29MSp4kQArwfwRD6zyxauATxQkqNvi+cO/rJxEbdRXtewvnFg7RVrlVunPEgFA9GDPqUtNJZlsGUp0q8GogDjIypCGFg4CbeJPZywiUsbId9wbjKAMvgx+AS36xDc7swf1fueHhvOgByfAgOBhPWzyDKTwRDKrwYdBioms4XA1g8k3RIk3B+2GeiQ+wDgoVBKhYt6UzAy04VxRVTqThkv4mUMODzPo4LwcU648+ESFIqJFlfetycM8zJGJo5DhY+B85Z2rU4vR6brqe0koz3cR1xjlhnbN4uSRWFOZh4byxe+DcpLIQS3ifSoIg3jpvrMY0ShRmlc/utcFG4TBr6sjAIzhpliZehnpa4U25syiWdhXBYhmiJoy7BqFtXZt3znewxEYnB8xKqjcZOG4UUER6kkIbYCt1yOUaeMnPiJR3QuyZbxJSZE/FNwoWbbywy+BuCiX3hpp5uD99JqOTJrT+OJKVNz1hXvH5+xgNZWOK5lprEEd6FtAKF9bPPrDusP93/OP0Ur3uZEZf4mFLxkh5T7jPBIxOiWXF6kAE5Pb9hJmlECmIvrDMWvpz/dCZwxEKOtPw4XeJzUypcgkhIvTbp9Zm7ftgXBHKIzihcFC4rB03LSBHNOrCO4WmJe7d8+vI/rsOpYY6lZQiWXBdhKq/CFxSjLpGhnHghWsSNIfW8jLEwkSVzEq1b35aSyAtPp6QMSgRKerMmMhOMiG3nLhUuPNmmjd1yC0/1NHyLB8iu42GQZr9KjoXXMCgE0VKyfgQUUYSS9TPQ4cdoWveyU0Vhn4gkYLgtOSYGboRqUwqO3yMOYmHSdv4RmqEkn2hVarJu2ue0CileaLLYR7iknw8io/T6SSN1TdeQwkXhMvnBgJQGg+EYoiX2tGCs7eNpCSkX5gZC8NQ3qSN31ebYKQiXJqNu7vjm4XnZCuXPpSlO/BoMnBh3iSowoBD256aJwODf/I4bJ4bWYOYtiVClwiWYVBEBPOGyPZ7E2Q6RGP7P7+MeM30FJdEk0kFEE1hnOA7+ze8YqBnE+nQOjveB9RMJYl/D+jkG+uSwbvY/7o2S23/SJewjKbjQ8bdJDCAWMJDy2jgClYOBlH0I623zmcT7RUokpAPDZx+OCTGIBypn9M1BSg5BzPXCdRPWxbo5DgRpqDoK6woimn1mP/h3V7qT65XPk33kJ0vwmYTrOpxjzgmG6abveiy+EdZcpxw3n2+4PjkvbIt9JKUWzm3XQw/iOP78EGklcH2Gc8JC+lYULnOBaiIGw2DMHeppIT001NMSCxf8I08c2F9HbYhwLMOU2yZeUqNu6Kib87yk0wMMFS/h9dd//6/qpoBbXWzH/2dw4sZNqB5/A0+t/JvfpTMjlwiKJuESoEInbIt0Tzoo9xEt6WsZWFgnAwXrZ0Ble3EjuD6RtvR1RCtYPyKL40SsxIbOtnXz3Q6+nZx/J15H+HtT19p0vfHrukR57pgY8DlffY8p/RvXC9cN5x9/CNdW2icnNkKn+9217/ydz5h95Lrhc42jQblz0ed64ri5ZjgPnA/OC9uKBW/X+oYcV9NnvxUfsBQuC04ZMSgOGVSJtMSeljBhYh/BEqdZEAPBlIuvJPaZTEG8BKPu86mLJ2qh1STQxvK88Fr6w2w8+fjgp/p1EzCzCIQhwmWe53uoEFnUPrQN/LOsf5b1jvWaRayrVCxM+foZ+l5nrFe4zBV8EwyOJSbdND1E1GaopyXtlBtKoDHl0nZ/KqIlXuKOusGo2yZeYs9Ln8hLHNGix443g/nTFXEREVG4TODpNUCJbVxl1DaYBtESyvNCpCVuztZnweiK4ZUBnqZ4pGSWVQJdYtSloy77SSiZqArzKjWlv2bxvJDC++5D125OeKloUbiIiMJF8fKLwTD4XUK7/3l7WuIFUy7RC1jkvESzGHXZz1rwPbK9bpjX5t3JeV7apgcIpc+k8Na50ZzCRUQULjKTeMHvQlO60Pa/zdNCemgWT0tqymUWZiCaMcVoS86oS8k2Ai501O3y8JR6XkJ33HWci0jhIiKicBkVnvDj/i5dnpZZIi0spFkY+GFZ8xLNatRFdLUZdVPPC+Il53kJC9EYhE0qLEXhIiIKF8kMjjzp88QfIi+kh4KnhfTQrJ6WuOFcPC/RQweunkwJdEnUBZGF2KojRb8w6radk67pAVj4N79TtChcREThIj3EC+W3iBca1D2fHnpmNE9LbMolfcJ2w7xEUxYsOaPunfs+Xht1MSm3GXVLPC+IFkzS6cR5shhoLEZTMBqGsZTM3CwionCZiHjh56HDG3XKIqSHxvC0NM1LhNmVEuhVES5BvMQddR97/NE6glQi6kgbEXkJDaIQipSlc64VLdMU8yIiCpcVunmP5WmJlws/fd7zHSSPH6kjF6uQJspNwhiMuog7IlJEVEqOP5RKx91RHSxFRBQuMuOTJikiBtiuypm+JdBEcNgOPpEv73jDpKuJ2rwuGHXx58D+jb21Ubc0VYZ4CxVVihYREYWLjARzCCFeSqMJXQsplT17n5/c7f6NZWTVzgAAIABJREFUz65ctKXEqNsWnQqiBWOy83qIiChcZOToCwt+jDC54KymXEQQkRxSLJhyVy3akksZ0YMm9LihE3Db8X/68j+uozNGWEREFC4yRzCP4nf5wHln1gPwkIZzRCOCKXfK8xL1FS8cR+ioSyQlZ9Tl2BF/fWZtFRERhYsMiLrE/6bVPamOvr4XBnKiDWFeou/s+dDKi5awfPpHJ9dGXUq7AaMuXh6OGZGHkEH0EWlStIiIiMJlweIF3wvRg9JqI14TTLlAGfFU5yWapaMuRt1wfhB3pNZIHVEuHcqdFS0iIqJwWQI0XiPt0zbRYNwp94/+7L2b3o57f3ZJHaVYB9GSGnUPHfvH+vwQmcKsG5c8K1hEREThsoToSzwAI0ZoqEb0Jed9IdpCWinMS8TAzgC/LqIlFi+IMURZU6RKRERE4bJEAZNGX/CwkBJKhQuGXkyrvIcJCkmrrEuaKCyUdVMlhUmXCiMRERGFy8SFDLMfkx6hEVuYu4ef+DyOHj1am3IxscalxOsQaaGJHoIMc66RFRERUbisUASmnjjxqafqKhr8L6SQEDOwDqbcsO+khTgWmugpWEREROGyBiBgtv34vvon0KiNAX9VO+XykzQXHh28LPh1Uh+LAkZERBQuKxh5ScH3QbkwaRX8IKvWp4XoCr1naJyXi7AoWEREROGyZgIGjwtRCgZ/vC5TNumyXwgsoisILuYjYpoCBYqIiChctpiQ4d9BxCAKqMZBxCAUltXfhe2yffaDqBCpIMQK+6lYERERhYu8QMiQfiESc+e+j9dCBvHAHEAIiXn4YhAprJ/tEFUhDYSIQkyR1lKsiIiIwkVeIFaafh+iMVQhIWao3EHQkF5CZMSiJheliaMnsThBECFQiKZQvkzPFVNAIiKicJGZRUyo0GE5fvzZWswgMIjMIGpYEB1dS3gt7+P9rIf1xevXaCsiIgoXmZuomfJ6RUREFC4iIiKicBERERFRuIiIiIgoXEREREThIiIiIqJwEREREVG4iIiIiMJFREREROEiIiIionARERERhYuIiIiIwkVEREQULiIiIiIKFxERERGFi4iIiChcZGvwT/90vDp69Gi1f//+av/G3urgoSeqp556qjpy9Mnq6LHD9c8nnzxUPXFgf7Vv/+5qY2OjOnbsmCdOREQULjJ/Hnlke/XY44/WouTnx47WogVhwu9YECeIl8NHn6hFy6HDG5uihb/v3r27Fja875lnn6lfxzoRNCIiIgoXGczhI4erBx76QS1AEBvPHn+mFitETIi0xEsfeP3x489u/mSdiBh+sh0iN2xXRERE4SJZIYFwgB07dtSREURL+F362kWBkCF6s+3H91VPP32kFjns0yL3QUREFC4yEUjxIA4QBXX65+jRSYmpGAQL0RhSTvxkvxFXIiIiCpc1B5ESohn8JJIxZVIRQ6oKjw3Ci7QSwktEREThskYw2DPIswR/SSwIViH9ktvn4JHh+LZt2+YHLSIiCpdVJQgU0itU94RBf508IqmQoUKJSIxeGBERUbis0GBO+iT0VGka6NcVqqAowcYDg29HASMiIgqXicKAnfOubJXBOz7OuLxa8SIiIgqXCUFqBNMt0YZV867MU8CEn5wbBIyIiIjCZcmChYXU0Lw8LMEU+8zxI3Wn2wOH91U/PbSz2r3xw2rH3jurBx69sbpr++erW3/4F9XX7vyD6prb33/C8vd3f6z+O697+PFbqkd/+v1q34GHq40nH6/Xx3pZ/zyEVlgnESgiUlMq+xYREYXLlgEPBwMxZtR0kB6Dp48drAUGYgPhcfW331399Y3/sTr/2tdWH/ncv6ze/ZcnVWdfclL9k+W//tXzy//96ROX8LfwWt7H7z969SurP//qadVnb3pr9ZU7PlR9455PVffu+Nta1Dx7fD5zGoVzlmuwJyIiCheZA/V8QM8Jl+BjGUuwsL5HfnJ7HSVBoCAs/vtn/1n1nktP2lze9//+/8v/c9nwJV5PvP4PXvGS6uNf/KVa0CBkEDFjHF+8DqIupNU4jyIionCROULJ79iQqrnjR5+pRUpOWMwiUIaKmbBdxAwihhTTGM3yYgETZq4WERGFi4wIgy1Rgj17d40SYeH9eEsQA0RXSN2QylmkSOmzIF5IMRGNIQqDt4buubOch/DeMMs1P0VEROEiI4gWynrpDjvGuki94Fn5i+t/fdOTMlXBkovIsM8ImSu/eVYdJSJaNFTAxIZmqo7s+yIionCRGWF25HiAHTqwEmHBBItvZRlpoLEFDOKF1BbHg4CZ1cwbGvcZeRERUbjIwEgA/otZxArvYyCmFDkYa1dRqJQIGdJIGIuHnq+4bJpzZuRFREThIoWQsqBqaBaIsNBjhQEdf8g6CpZUvODVIYXEcT97vH+5cxArlEoT6RojPSciIgqXtSadY6jvkz+vpxcKlTir5F8Z08iLgMF0TARmKKSNqOCy34uIiMJFWkRL8FgMTVUgWIiyrHNqqE/6iDTZEPEXR15EREThIgmkhmZJD4W00FYWK00RGDr9Yt4dKmAULyIiCheJIDU0tBEa/UzobTLlPixTib6QQutbfRTMvjt3bdfzIiKicJEDBw68QLT0iQow0SElzphvFS3d4oXyabwvgwTi0aO152WM7r0iIqJwWUkYBDGBDhEtpIbOu+r/UrD0FC/8ZB6mvlEXwPOya9cuL1wREYXL1oPBkIn+hvQdYdZm/SyzCRjECyXjQwWMfV5ERBQuW0q04GsZYsYl0rLKXW+n1HkX8YII7CtcqPzi81O8iIgoXLYElD2H/iB9Bj9Ke+OUh8vs4oUpA5hsso94YUF0atYVEVG4bAHRcvAFDeZKYT4eRct8BAzl0n3ES+Cxxx816iIionBZXzDj4mvpE2nhdaSHLHeer3gh8jIkbUQ5uuJFREThspaihbLnvsZOeo9sxdb9y2hU9ydf/pW6xLyPcHnyyUN16k9ERBQuawWCJbTzL+Wu7Z+3emgJ4oUoSh/xwudKnxcREVG4rAUMcHv29uv/sWPvnfZpWULKiOXjX/ylXp9tHE0TERGFy8oTREtpioj+IkyWSARAQbEcAfPXN/7HXp8xFUZWGYmIKFxWHp7Eg2ApES7PHD+y2cZfEbHcDruUn5e0+A+f6/6NvRp1RUQULqsLqYNg3Cwd0K7+9rtrM+485+uhgobma/FChGeqIoLUTbq/LKTS5lUiHs5Vn0ojPm/Ei4iIKFxWEipO+qQPqCBisBxzIA4zI//F9b9ePfKT2+vZkUMTtXgB+plMzVNz9iUnVfsOPJzdZxaMsfS4QXiN3VGYdSEiS0i76oqIiMJl5aItfVr6bzz5eF3RMsbAGwZwhAgRnKZBNmXKwqVNLAR4Hd6UMcUf6yF111e8mDISEVG4rBR9Ii3PHn+m+tqdfzBKv5YgWkilxN1gSwbSVRMuTSKGCMzYZeSUpvcRrZZHi4goXFaKYOosEQwMzGOlOdIusH2e/FdZuIRjDcdLt2GqssY6p6Sinvr53uL9wNtklZGIiMJlJeg76zP+kzFLn//+7o/1Fi3rIFxeGMU6Vl1z+/tHEy9MuUAkp/Sccg3Y10VEROEyeeKn/hJIQTAojjlh4FB/xToJFyBVNtYxBZMzPXZKrgHAnC0iIgqXSRPa+peIBwy5Y3bHxSPTN9qyilVFfQjVRmOd31Kj7hARKyIiCpeFR1vwtpQOVhhyxxzkaVpXEhGgyR3VRvRHCQsVTfPqiTKGZyfeVxbSNiVRD9JFY+4P4uWnh3YWXxOl8x6JiIjCZeHQ2r80PUAUgQF4zLJdhEsXDLpEMYIZOF2mPIdQvI94V4imHD7aPjMz3W/H3h+EVClHjj659lEXji9UUj399JFqY2Oj2rZtW3XXXXdV999/f7Vv377a88PfMCyXdCMWEVG4zBlu3NyY46f9ths9EYMxyp/jSMCV3zyrcz/pc7IucyAh1LrKlDnXY2+XlBrN/EoGdJZHHtm+lmIFMYJAufbaa6vzzjuvOu2006qTTz65Oumkk05YXvSiF1WvetWrqrPOOqu69NJLqzvvvLPavXu3BmYRUbgsU7iE9v6drz1+pH5qH1NAYPD9xj2fat0uT7pEW9ZlTiHOH54Tzmcb8+hGjEgsncdoHcui77vvvuo9v/eeWozkhErX8tKXvrQWOoiYg4cOegcVEYXLomFwKk0J0NofoTHmYMr6SIu0sWPvnXObB2lZKSSOpyldFD4PROLYwgVT9e6NHxZfG+vidSEd9MlPfrIxstJ3IRLzmte8prrjjju8i4qIwmWRPPDQD4pfixF27HQNaRMEUes+Pnrj2gkXjrvL5zJ2n5xwvkv7uoQ04qp7XRBgH/7wR3qJEpaS1yKEbrzxRu+kIqJwWdQNPX7Cb4OOtvMQDwykcYv/pkjPuvhb+giXefh6WB/TKtDoro1wTTBr9CqnjBBfF110UaMQeclLXlKnft70pjdVZ5xxRvWud72rOv/882uh85a3/Fb15t98c/WGN/xa9cpXvrJRvLziFa8w8iIiCpdFsHPX9mLhwiA6j+odBvAuwyhG1q0oXPDBzOO48QuVmHSB6qJVrqa57bbbGgULIuW6666rq4dCH6Oc8MHLcvfdd9dGXkRKk3jBtCsionCZI4cObxS9jlLkMRvOKVyWK1xYJ2moEhC1oepsFSFakjPYUlHUNKFkUwM+RMyOHTuq33jjb2TFC1EaERGFy5x46qmniqMtmGepcJlXabDCZbHCJYiXru2Ha2Pbj+9byWv8u9/9bta/8olPfGLQ+sL5uPfeextTR0RvREQULnNg3/7dRaIFLwQltPNq8qZwWY5wYR+6ytADq+pxed/73neCsKAMOhUiQ8TL1VdfnRUuH/3oR72riojCZWy4+dK7peTGTensvNJECpflChdMuqXXy/79+1fuOn/d6153grAI0ZahlVLx+0455ZQT1v/r/+6N3lVFROEyNuT2S5+iERVjdsodIlwo31034YJBdpnChaWkp8uqposw2+aazN18882jCH9ABKXrf/3rX29jOhFRuMzjpl4iXLhBf+WOD821h0qJcMFjo3AZf8G31DXpY2DVWtxjKM4JlyuuuGK0bTCnUTD7vuxlL6te/vKX12bgXbt2veB1zAPGFAMPPvjg5sL/+0dJD9ZzKMXrwSzc97PB35auZ8+ePUXvZboEXnvPPffU3YPPPffcujqLcnIa8nH8b3vb26pzzjmnuuCCC6pbb721rrbifWP0A+JY2f71119fXXzxxfX2MUuffvrp9bQMVH7dcsst9Wvi88K/02Me4kdiPUQfb7rppuqSSy6pPvjB36/L6BGsZ5759tqgTV8fth+bv4OxO94+52XIOeHevXfv3nr6CUr36QTNPhBh5FzweZCyRKSHcz8Ezk+8v5y/+HrkGPk+cdy0FAitBGgNcODAAWeYV7iMC705SiZVpAz2g1e8ZK6TGDKA0xm3jb+/+2NbUrjgLZrncbNuZtsuKXduKheeMrlUEb1ZxoIB5JprrqkHZwby7du31wNFeq4YYHJ+mD7eIQYBhEKuAR6DWB8YbNL1IDLato3YYSBkkMylyNoWSsV5H+8fKoDZB84xUS4EUtc2ec2FF164KcgYhGf1I/H50hMIkdS1/Ve/+tX1+nfu3FnvOxN4pueNAb9PqwHWg4BgvSXngAUTOV4vjOp9vWqIwHR9mw+Tz13zbftA/yN7GylcRoMvSmk3VIy5Y7f4zwkXmtu1Ma8eMstcOO4Dh/ctVbhwTimL7tqP8MS4KpMuhmubwTK9ob74xS+uxcZY2yj9e64KichAnyd9nmhzgwS9avqQG3hDD5rccfE3oihElmaZJoH3M+gOES9XXnllaxPApoUIEPNTESVJ/8YUEKVwjpt6+LQtiBWEK9EyohLx384+++xi4YIYRjQNnWOLiGDfc59LhQKCpGQ/brjhBhWGwmU84RJKoTtDhQcergfYeQuXLp/FPM3ByxQu9Mdp45rb3z934fLxL/5S534wmHHdhIaFqwJN45oiAIT6F5n+YtBI94M0QykMXAw+ueMhPF8cbc0M4KQ5miBSkItczbL0iXRw7VHBNcscU6eeemqd5hgqXBCYsxwvYpm0YioYS4UL1ymf8Rjnnm3OIlzYF6KWJULJGdQVLqMKl9Kw/7z9LQycH/ncv+wcOBEu6yRagreHaqk28P7wunmef352RbzCANI1TcAUocqn6eaKLyD4IRDz88zJ89SfE1CzijAWnuRLIdrU5PtJjx+PRk600AsHPw9RGKIArJOIBN4O0lmkJhBDTWKD99ILpwSe2nPTNSAGeOrHW8M2+RzxnJCi4Pfpe0jdDBEupLfostyUhsFTErw8l19+eX1Nsa30PexvGrEpFS7sZ1P3Z7aFt4dtEwnhs+D8E+nhPOfex+tL0kY54ULjxtxnQTQtPudBnOpzUbiMAqLlsccfLXtKHHl24pzHgjTQ08eaqzDwgSBu1k24cOxEO7pSdQiXeUe8mMSyRLisUj+XcMPkSbsrxcATOWkYzJ4MwKRG5jHNQTpw8VSKoBn69BsvpeXqiI30vU3GXAbk3LYwxHaZi3naZhBlIM+tg+PpOsd4d3LpGc4b72+q3uL3DJxdqa0u4cI5zXVeZqDGfNzkLeJ7gpjquu5KhEtTvyAEy2WXXdYa1UAcso1UxPF/rvWuiEjumos/D/aBawHhy9QZXC9sD+FIekwULqNRu+I3ysx8807RBHNo25M80QAMwusmXELUpWvgRTzOM12Eh6mksiiki1aJcA5JCzU9feaiAdx4GeC5ISN8ZjUmN5VPM4AwwJXQNQjyJNwFA20aeUBY5J6MqYzKmS9Jb8WvzT1Rx79j8E+9HWG7XWXjDII5nwxRmPhabNoHojC5SEupcEEY5K4PxER8TYTtp/tBeqgtzdYlXJpEN2IK02+8/abIBlGznABF/HWJzzaxzD7w/nT/2R7VU/w02qJwGTVVVDoAzbuiiAG5q3srg+q8phtY9kIaroswQ/S8Pgf2AS9NabRuVectonx2qE+Cp0zKXEkbBGP7kJtyrrqIsH3X9xERkRvA4/8TAeiCdEbqk2kSThxruk0G4T49asI5IoWUS2/hn2k7V0Q2mgRaqTka8dKU6mkTLpQQ5yI2ofqqdPtEPZq23yVcuOZy70MYlKZheA3H8o53vLO3cGsSLoipUBqd7oNiReEyF0LvgpILbN6GWFIlXRUt9DJZN2NuLNza0jR8RhikOf55nQP2gXNcwp69u1bOoBuLDFIiGAubTK4lC+KH8DhRnD59OHgdvS3SklgMm13lzFTUxO/BV5GWqjI49k03EfHJpaoYTHO+Ct5PxLbv4MRAm0YOOA9tfVQ4x+n2GXz7Do68Nldd1jVw57xApBT79EQJ+9lkrG0TLk0RryY/UhcIuFSI8f+2thhNwoXzKQqXhVKaJsJ3Mm/BQGO5NjaefLxuS7+uwoUF/07bjY8oxzzLovvMFP3Egf3F189UxUu4iTPwMxDNUqGB6MAUWRKFCJ9lOn8SQoiUQhsYUOP34E8gXZIKF/qcNMEAlVaDIICIeqSDIIMpRk+2w3lioCIy1Lb+VsH7nGBM00UImSZvDQIvl15qesrvEg4Ym3PRkzbhkpsBnNTRkO2TNsmJ5SbhwvuIEOauNz7HoVGNnFG9rTVATrhwvYYyfqMrCpeFUdqxk6Zw8xIM+Cru3fG3neFFXjPPNMlUhEtXOfgzx4/MTcCVmIQDR44+WS+rSnydETngiZ+bMAMYVTBDxAtRC4RF3FW0jZzZkgGx6TuARySNVpBGIdqT7gdVNU3giUgHT6IaJSkPBl6qroaWtyKOUvGFkAi9Y1IQGqkniUF7Fq9RzuTbJFy4LnKVTH2i1ek1l0v7tAmXXPk8nxfG376CoW2KirYUY+71XEOlXZZF4TIad9/znaLXUao760AZ3o9HJSxEDxiIu24AvIZIQFOkIaybvz/8+C21wZcFTwjbKU2v8Bpez7ae+vneersIiVDJVLqO8JPUDzcj1oPxOOxL23s5JyXRAiJQiIz4fI7xGbVFfV7wmTw3cK1Tb4b0+mNwJ4KC8ZCBKzd4tZl6mwbiGDqfpkKEAazpvFLlFAsOjMOklvDapKmEYLTNkT7B8+Q8zwZhnFuOCbFBqigXQYkNpjE5UyxVX0OuvfAZ56qpmoRLUwn2LHBdlQoXfperxiICNgtplC4IyD7CpU8JvyhcRuOBh35Q9Dra7I8xKP75V09rLXdu2z6lum3z7Hztzj9ofP+ffPlXOqM1/I3Kqaa5ktiH0jl/ECk5jh473FpWzu/ZT6JLTUKuyQyKkGk7R6WfEQbdUqPfOoaHc8dFugJTKakdUkoIhpxZNF54TVdEk+hFGrJH9DR5J1KvCT4PXsuTd+rdQBw0+UbS1yKe+k4V0HTuECdEVRBuHD8RIUy0RA1yKZc24cKgnfOEkLKaRTTnBuEm4ZKbWgGROEt6BE9UqXDhOFPhhNBE/BDZw5fUd+F9OZM022m6ZnLnLEyZYZpI4bJQSs2VRAHGEi4MsF1poRgqjdoa37FehEluneHfmH6JTrQJBqqmgmiJB694fexLl7+EaE0uihT+jcG2Tbywfo6H1/WJEITOxmP0cnn2+DNFg9S637Byx4dQ4MZPmgch01ZaTUqky/OSGxCYSya33TRSwGAbPoc0MsF+5fwyCIu0soX1DgHhheBAnOCP4FjwvxAhIJ1D+XFp9VZOuDBo59IqpMFmKcfPpeiahEtujp5gSB16/RNpKxUuXD9NTf+IeAxZEKq5dBnrbZrKI3edcv2LwmXhUBlSwhjzA+WES4lo6UqBIGrCIN/WR6ItahR6yCA4unpRsL22/QmVQW03tS4hGFI2XX6X+QmXstnCt9KTVu5YEQFEFXI9RoJJtikFE5fIptGbXBv8tLKEsD5P7gHEQ2o65ak83W/STel+0jCsz0BMaor3UA1E6ortcqx90mklwoXzm6sCQiTNcu3lStGbhEsurcSEjbNANCoVdE3ChfMy5hQLXR6tJtN1TrjwO1G4LJxSEbFo4YKAIPVTkt5hKbnp4tNp6gGDGClpvFaH2Tv2qWTw69OPpqvaah7CJUSMFC7lYqapzwYDUle/m1Rw8EScQmVP2i01HuwZDNPKqGDgjKFpXLqPpf1YEBL4Y4bMV8SgiLghUpCLUuWEC+eNWZObhNZQEJulwiU3CWVpo8DG7+q+fSdMTNgkXHLTQ8xTuDRN0pkTLrMKOFG4DKK0nHXRwgWDbTCedgmXLrEwtnDpMumWgIelpANwMAp3pY0ULs0wGJDSYHBmwGCA5OdY+x6vJxd5ISrR1II/vDeXjkhD9gwS8d/xxsTb5jjT6ADVUalfJq0mKvUpcN5y0YemARBxQoQIczPbIJW1ffv2+rNgDqES4cJrc+c0F0nqQ26ixCbhkttXROos5JoINgmX3ISQROg4t3y+Yy74oqjiUrgoXCbNvv27i163SOESbkjMSxQqcbrMpF2N64DIRdd0AyUDdleqqCS9w7a6zif7hNgKaZuuG7XCJQ+RCrwmDEAMokQLSMUwKI4decFTkqYAGMQZqNrIPVWnT/XpABrC9PFnQKVJmq5BLATwzqR/D6msts8S427TPEOxQMPfwn5dddVV9XlHfGFsfsHD0nMiLmfSzQkXokW55nOIjFk8LrmqnlS4hPOR9tph4bOYBdIxpcIlLXUPxm+uNf429tJkDFe4KFwmQ6k5d4yOtUM8LiWDPH/rapqGsGnrfRLMuV0CCPHTJVy6Os9SZs15aFsH8xbRO6ePSNDjkifXrh4B09Zifijc+HNplJJmbWlZNCmKAI3GUjEUJq6LPwe2kwonjKiBNLLDkzs9WboiVk3dXoPAQnhxPkntdFX7IIJy5dChdX0M62rqYTJLVVEuwtUUcckdO1GrWciVIjcJFz6fXLl9V6PCsaKICheFy+QoLYfGbzKGcEE8IFz4gpY0uwqvaevhElIqTakeSpAx5tLorqRrLK/P3bzZ79JyaPYld3ysm3PZtC+hHJpIS0mUJZwjFiI9Y5RDI5rWqRwaP0OaHsFT0tQ3ZBaaogltwmVzAs1kgKbqI5Qop+ILwZFrwEaEIvWPEAUJf0sFA/1Quj5HRFNucj/2L00rlFwPTe3rm0rH0ykOQhXULLOT56JHTcKFcz92H5dcb5q2cujUA8X+xIJ0EShcFC6TobQBHQPxWM3NGLipFmKdeD3aohxxOTPv7YqYIFAoaWYWaRYqfEhzdYmW2OuCuGK/iHiwDn6WVDelvhuOM90XqonaxEWIHpX0umGd7CdRIPaPyRHbysZLPyPOY8kgtCoN6JqiIBdddNHo28oNyhhSS+YxSs23RE7otQGpoTbnSwn/TifQY5Djb7lmd6R0uvarqVHZ0FbvCJScOTc3T1KIIqWluxxHnwke03tKn865RJJywoXzORQ61JYIlzALO+IzfT1Cd5Z0GdExut4iTEu+xwoXhct0nkZ/fF/R6zDLjtFiPkQUGGBZEAMIhTZjbHgi7ErTBL8LTeTok8LC+vvO6xNeH9bB+vpObJjbFwRB177wmq5yakQNooh1hikT2NYY8xf1aflP9GgVWv6Ts89VpiAMmkyzQwdEBvN0kKPSJzcHUPpeDMPppIukNCCNGIU5ZXLCJTevDWklREoaMSkZfHOpGoycbZMitkFFUC7l1JT64NzlUktB1PWFzyjXW6bvXEVDDbpcczkh1NbyH+9SzmczVLwB1xDnFZM3ESyuNbw/TZEshYvCZTIwUV4JRDzGnhsniIHQZj+erygHHo62JnK59Q6ZSTn3/qHH3ncdCJ22sDu/Q7TE6x57riL8NyUcOrxRfP0sGzq3pk3XQlv8sdJdTU/GPF13GYHDHEDpkzgDSq6qpG06AQb63NN5Wq5dOvCRThrTnJozu7I0leGGQTMd7Bl0+0JkIfcZNQmXcG3kOt1ikO0yXZerTkKSAAASuUlEQVQKwS7hQjQuJ3a4rodAmjGXrguRPIWLwmXS9GnzPY+BMl4QJTl/SYBurmOYhKe6cFxhqoCmwRQfC1GZeZ0DhEuXuXhTSO7fXT32+KMrcZ0TdUmjGXEXVAbwWQQMA2KuNTxP9nGTuC7SdbDPqTm0rd18+F0aoSC6kvYjIf00dKDlKX1IVdatt97aaPLFS9J0PBh3czM6X3DBBb0+I6I9OQHbFXGBtO9KMAk3VeHkaBIgbcKlfnA8cCBblk3KbUjUBcGTizrFhm+Fi8JlspDnLM2TjjGJX5epNZhSm25gpfMFreJCuqeLNmPvWPvQNM9SysFDT8ylMmdswrWTa/Met+YnxdJVYZMbDPFsNDWfY71dzediiK7EPhQGudSXkiuDTo81l1pIPSoMom0iOZDzuDCIN3lSmsDIm/OWhIXz30Zu4AzRpK6+PPg4EIVt0zM0CZc4BZeKDv5PBKnL6I3I4/prO/424QKkcXKih4hYn7QdniGaF+bEaNv1oHBRuEzmhk4UgwGo5MYfvB7zGjR52sdg2hQuBcyuJY3bVnFBkHQ+/bbMcTTWPpR06g2mwVWoKornnGoa/MJgTlSCQZ9Buc2wyBMwqQ18AbmKm7C+4NsoPU/4C9Lut+lSEsHJ9QlJza2lkYKmlvOkXErWwXnEX9N0nlLfTtPnx7lJJ6SMBSLRgrhnDO9j/zgXpAS7piNoi7iwLgRoLm0WomB4blIvE+9B2CJuuiblbEsVhXU19dKhvB8h2vUQyvWYixzFniGFi8Jl8vAk0DSpVkqJv2SMNEVbuihUF61jmqir6y43JSqS5vkZUAodzMFdYiCY+FZJvDCI5ua+aZrdmZw/6QBSEgxsDEAMHoTZuwZC0iLp9oemZuKUT0kZNwN40wAVTxJYKqaaBkxMq02Rl9pQ/9w56GpcF1c4dX1+iICmqAWfB+KAlArpNQzZTWmhvubcOGXVJcAQV6wLIYKpOned5LbfFXEBIitNk1Zy7Ihu5r6KBSX7zjWDf6rpmiVi2FVernBRuEwGbuSlOVLKiseoXGkbvBFHXQ3qiPysY7SFkuY2KH9GWMzz/JMqihvflQiXVYNBHdNr1xPw0IXBMvTYGCLqSKk0DTCIgJLva1Or/FRUle5fmsLKPfEjhhjcGAQRDbnXc274G2mbVFSECqou8cC+d4mHtqkIEDU5g27X/ENh+1RitaV8uhaiNmmFV4mYjLszp1VmTQIKYdk1OzffBcuhFS4rBQq/NAdPmmbeAycDeFfL/HmnrJaxEEnpOm78LbP2aek6/6SiSuZF4ropnS5iipEXBnY8A7kJ9GZZGAT6ioIcTQMjoqC0OeAll1zSmMIasm9XXHFFYwSjZMFXQeO1kH5Kj5H9Kk1fkaYjGtZnNmoiUMHMmytvLmnoFkd+6JfTJQpSIy2DP+vIGbmJ5pVunygX6bFZZuPmfCPggsm665pQuChcVlK4UEKHcJmnaGAAJ7LQ9qWlQds6Cpeu6QZoXjfviBel0CXzPgVT6ioKl/gGTVkx4fVcaWifhYgDAx8m0CHpofQ9uXQRoqFP+Sueh1wlDqmvPvsXXse9An9NztjZtjC4E+WI50yCXFPArlmf430m8sT56IqeIZAQfPH1movYhDmbSq8f7pv4QkjBtAk6PgNECZGSkAoilZQzGfeBfjCIyb6fB2IHwcL1EYRiybWgcFG4TAputl3iJZgx51mK2yVc4sjDPAfwZfhbOG4mlVymcGHdbKNkgsVwA14Ff0spDGzciJvKpnMDEgMQ74sNwGNAaoZUD+mDsDD45ubzaYKuqAyG8TpYZ8m8SV3RKgZMTMRtT/xEs4gspC0XwnpIl8T7xtKnvDkVoIgetkfKiYV/I7RylWK5iFaoshqyfe6hiBgiSpxzxCGCmEqknJhN50riPBIhGyLAuXcjmrsMyKSXiFKFkue+sI308xraR0YULjOD4aursih8WbrmDBrDHEpKqg2qXraicMG4PO+IS5fPJtCnd8WqpI/S6CIDLqKEGZUZgFi46edmPJ73/vT5+1jrKH0f9w/EEAM3gz8ekNSHk76vq4vw0Aha6Tr7TDkw67nOvSY1iBMxajMnl64XUUlki+gOnwcpNcRu6kfrO8/YWJ+XKFxGg4u6xJzFBUrFSdfsyPMWLkwPoHAZf6Faq8SYC6Wziq+DiJmHAFiH8zSGgCqB6B73p7HONaI7J1zauhEjZMf8rNMpKOJ5qeb5eYjCZW3gxlD6xSSNM890UYlwoUndugkXjnvZwqV0jiLo26hNZCihQgpfBl4Z0hNEeIZOMEgULfX+YNxtg9QOqRh8HvSbIaIxS9Qx9dggpPqkAUW2vHCBBx76QdGNgB4rlEUrXNZLuLAPNP8reUoOEyv6hCeLerCigiaNkKRm31Jy8x6FUuymazr1pHT1nWmDyEqu4klE4dKTklDsItruK1yWJ1y6yrEDqzKxoqwPub4rRF/6wP0Lf1KugowZo9vAdDvGRJMYdXOdkdumcRBRuDSAz6Vr4AxfKga4eXWvVbgsXrj0mREaVmViRVl9wj2H9EwaJaFKJu5O3AVm61wXX6IdXXNukcbJlXlTaVOasqJ8OTdlAMbcVWwtIAqXSdwc2sxpKfPqpaJwWbxwYdv37vjboic+/AarMkeRrM+9iSqlXLdYvCGUEbfN7o1/j1LpXKSF/iuIohJza252ZvaJknhESRvMfJ1relfSsVdE4dJCn1lsKUmel3B5+PH2sC2D7FYULvOYcoFtszx7/FiRGKFb7qq2+pfVFi9ts3sTNcGHQjdkerfgI+Hf9FRp68tT2u6+fmC6667GPin8nj47iBC2jVC58sora1HT1p2ZCNCYFVOicNmSN4gS/0L4kpEuGlu8xE//TYSS7K0mXObRQyfMkVTyxBm6LA+t5hCZVbwgTsaYY4pICy37Q4qoxN/HdU90p0+b/7butTSDCxNmKlxE4TLDjaGPcKGfCgPf2AMp0Zw2SCVtReEy9uzcrAvx2dWpOI7IlTQqFJnX/YnoBJEXJhAcKhqIzlARFCItfUUD5diIjlnmCKJDcNxRV0ThMgOkAUqrRiiNHnvCw5JZktnu2IJpmUswx3Jcbfz3z/6z0YULvhnSRCUDB9eG0RZZtnjhJz1UmFvotNNOKxYMeFyYqgAv35ApGtLt0yU4V6bdNmcS0wBg9I1Fk9EWUbjMCF+o0icBBjFKo8fspMu6Qj+RtpvH2IP4MqMtiDAMx12MvW0aCYbtloTKQ9M5b7SybAETX4P33ntvbb5lnika1eFpIaqCfyXMWZTOzzTmNcwUB0wHgSihlT8CCdMw/pXge0nLrf0OicJlZGgwVmrA3Hfg4VGjLiF90SVc8LnMe8LHRQkXzl9Xq30My2Nv9/xrX1t8TVCZsX9jr18OmVwEZt7vmer2RRQuEXgZ+lSOECEZe4boA4f3dT5xIV7YNtU2DMJ/8uVfqX9OVaB89OpX1vvIQmqI/f7KHR8q8pgwI/bY6alQvVVyM92zd5c3XlkpMbOMa3XZ2xeFy5aGJmOlnXTHbkjXlTqJ9wt/xjPHj9T+kOARmUe10xhijPMU9pOF/Y79JW3nm4qiZTWcs5JIREThshJPLaUzRoeoy5jpIqITQ5mqcCGtNgTSSGOl41gHwmXjyceLt28lkYiIwmUlhEsfTwORA8TGmIKhq5/LVhAuRDpIE4VGcWOYn1lfaTUD3pZZZsEVERGFy8Ig4hJmAi4ROngmxqwwwgsyZLBfJ+GC/2UsEzLr4Jz+9NDO4u0fOHDAzp4iIgqX1Ym64G8oHbSIulz97XeP0t01pDQwsD597OCWFC4YlINoGet4iLaUgkE7lECLiIjCZSXEC0/bfeYwIkIwpnDAqEulEOvFzFoiolZZuNTNrY4+UVdMjSlYQrQlFaZt9K0uExERhcskwOdQOhEZ0PmWBnFjVsEgYIjmsG6qc576+d7Nqhx8IGGZunCJ95WF80qFEcfDVAY09KOCiOMdU7Twk/NWKloQLEG0mCYSEVG4rBQMroiXkmhBgMF37Pb0CJi4HwqRmHShzHeKXXXZ99C/JexnvN/8jcqh4BEaU7QwDxIRnD4i5NDhjV6vFxERhcukuPue7/R+T/y077KcBSEUZn8uxWZzIiIKl5UmDGClZbHh9VSvrENb/lWeToBoTp+eLbVw2bPHi15EROGyHuKldOboeE6hKXpOtoJoIfWEb6Y0eoLnpiQlKCIiCpeVES9EXY4e7Te43frDvxjVrOtSZsYNkZbSlA+ipVSYioiIwmVlxEufhmThdVd+86xNc63iYn6CJZiYQ5O5Pp9TeK3eFhERhcvaiBbAvFna2yUeEGkmN2bFjMuJwgVPUd8KIti5a7sXuIiIwmV9xQtRlyefPNRLvLAQeVG8zGchHTdkfie64xptERFRuKy9gCHqEpq+lQoeXv/Zm96q0Bg50kLZczDi9hEgfB40miuddFFERBQuKytcGPT6pBjiwTE0qDPyMrunhYUJLvtGTDBZmyISEVG4bClKZ5DOiRfa21sqPdtCF+EhnhaIPzejLSIiCpctEXUJ4qXU75K+967tn6/FiyJk2KSJTD45hI2NDX0tIiIKl60LwmXf/t2D3svga4fdfvMe4RNiFukhERM+JydQFBFRuGz5yMvBQ0/Uy5D3MkMynV6d36i7sRyzZAdT9JD0UN8GgiIionBZW/HCwMjSZ0ANr332+LHqmtvfr++lQbR8/Iu/VHchHgqdcRGIRlpERBQuEokQhMuhwxuD3k8kgQoZqo5IiShYnm8qh6DbvfHDE8Ren0iL6SEREYWLZCInQFOz/Rt7B7+fyADRha3ufSH6RNVQnBrqKzyYfwgDtaJFREThIi0CBL/LrJP27TvwcB19CQJm3UVMOL4QZYnPaV/RwesRj30rvkREROGyZcUL3XWJngwZdOP3UDbNXEfrHIHhuOjLgvkWwZaLRJVChAXhuH//fiMtIiIKF+krQh57/NHB740rj4L/ZZ2qjzgOUkI05MPHMqvIIMKCnyVUDylaREQULjIgarJjx45Nr8UsPHv8meqnh3ZWf/7V01ZawLDfTIz4lTs+VPdkic/VELHBexArcbmzokVEROEiA0UMYNolfTTLgBq/lwgFzdhIsSACpixkYv8KXW9JCTUdV18w7x4+cnizCaCCRURE4SIjQWkuqaPSmaVLojlELL5xz6eqK7951uYUAlMQMMFQjKiiDwvRFfw6s0ZXYhCCnFNEoaJFREThInOIvGAcJeUTeouMsU545viROgqDF4ZIDNGNZUZX6AaMWNmx984XGG7HEBi8P5SdO++QiIjCReYsXmDnru29+72UrDeOyOCHQcQQiZlXVVKcBiJt9bU7/2DTt5KKibHExSOPbFesiIgoXGQZAgbxgnF37EG4aX1M7Ii4oEIpLJh9Wc6/9rWNS3hN/D4a5SGO+mx/KKTXaN0fqrQULSIiChdZkoAJaY95TgK4ygP9nr276tRaaCinaBEREYXLkiGaQFSBFJI8D8ZbOhBTNbQOAkxERBQua0PsCcHAS3nvVhykwzFz/KFaSEREROGyAhB9Cc3V1l3EEG2ivDkVLEPmKhIREYWLLJAXlDn/Yu4dxEtosrZugmX37t21aEmrrBQsIiKicFlRAROqajCoPt8L5thKHxtm2ziiNEtTPhERUbjIhIUMPxEx99xzz+YM1Az8U41QsF803QPECvt88NDBrEATERFRuKyheAmQSqLyhjQSkYtQNrxsIcN+sR/8RGRt3759s3JKwSIiIgoXRUztE0EcIGQwuLIgZkIflHlC6TLbYR9IZYX9YLvz6qArIiIKF1kTEUNkIyyIBxaEBVEQlm0/vq9O2xw4vK/2y3SJidqLcuxwbaDlvbTdD9Ge/fv3b26Hn/xeRERE4SKjiJoYRAdt9Ek1IUIOHd6o5xoKC/9HrCB6eF3oXisiIqJwkZURQqZ7RERE4SIiIiKicBERERGFi4iIiIjCRUREREThIiIiIgoXEREREYWLiIiIiMJFREREFC4iIiIiChcRERERhYuIiIgoXEREREQULiIiIqJw8RSIiIiIwkVERERE4SIiIiIKFxERERGFi4iIiIjCRURERBQuIiIiIgoXEREREYWLiIiIKFxEREREFC4iIiIiChcRERFRuIiIiIgoXEREREQULiIiIqJwEREREVG4iIiIiChcREREROEiIiIionARERERUbiIiIiIwkVERERE4SIiIiKicBERERGFi4iIiIjCRUREREThIiIiIgoXEREREYWLiIiIKFxEREREFC4iIiIiChcRERFRuIiIiIgoXEREREQULiIiIqJwEREREVG4iIiIiChcREREROEiIiIionARERERUbiIiIiIwkVERERE4SIiIiKicBERERGFi4iIiMjy+P8Afe6czEQMvfYAAAAASUVORK5CYII=;" vertex="1" parent="1">
          <mxGeometry x="390" y="460" width="125.83" height="99" as="geometry" />
        </mxCell>
        <mxCell id="0jGJ4z3kVpe8UCgSM6bV-6" value="" style="edgeStyle=none;orthogonalLoop=1;jettySize=auto;html=1;rounded=0;elbow=vertical;entryX=0.388;entryY=-0.05;entryDx=0;entryDy=0;entryPerimeter=0;exitX=0.5;exitY=1;exitDx=0;exitDy=0;" edge="1" parent="1" source="0jGJ4z3kVpe8UCgSM6bV-1" target="0jGJ4z3kVpe8UCgSM6bV-12">
          <mxGeometry width="80" relative="1" as="geometry">
            <mxPoint x="454.00000000000006" y="580" as="sourcePoint" />
            <mxPoint x="498.17" y="580" as="targetPoint" />
            <Array as="points" />
          </mxGeometry>
        </mxCell>
        <mxCell id="0jGJ4z3kVpe8UCgSM6bV-7" value="" style="edgeStyle=none;orthogonalLoop=1;jettySize=auto;html=1;rounded=0;elbow=vertical;entryX=0.5;entryY=0;entryDx=0;entryDy=0;" edge="1" parent="1" target="0jGJ4z3kVpe8UCgSM6bV-14">
          <mxGeometry width="80" relative="1" as="geometry">
            <mxPoint x="453" y="560" as="sourcePoint" />
            <mxPoint x="453" y="420" as="targetPoint" />
            <Array as="points" />
          </mxGeometry>
        </mxCell>
        <mxCell id="0jGJ4z3kVpe8UCgSM6bV-12" value="Tests serveur" style="ellipse" vertex="1" parent="1">
          <mxGeometry x="470.00000000000006" y="600" width="80" height="30" as="geometry" />
        </mxCell>
        <mxCell id="0jGJ4z3kVpe8UCgSM6bV-14" value="Build du client" style="ellipse" vertex="1" parent="1">
          <mxGeometry x="374" y="600" width="80" height="30" as="geometry" />
        </mxCell>
      </root>
    </mxGraphModel>
  </diagram>
</mxfile>
